<?xml version="1.0" encoding="UTF-8" standalone="no"?><!DOCTYPE svg PUBLIC "-//W3C//DTD SVG 1.1//EN" "http://www.w3.org/Graphics/SVG/1.1/DTD/svg11.dtd"><svg width="100%" height="100%" viewBox="0 0 375 259" version="1.1" xmlns="http://www.w3.org/2000/svg" xmlns:xlink="http://www.w3.org/1999/xlink" xml:space="preserve" xmlns:serif="http://www.serif.com/" style="fill-rule:evenodd;clip-rule:evenodd;stroke-linejoin:round;stroke-miterlimit:2;"><path id="logo-blue" d="M6.377,35.279c-3.152,-3.995 -4.866,-8.935 -4.866,-14.024c-0,0 -0,-0 -0,-0c-0,-11.506 9.327,-20.833 20.833,-20.833c0.338,-0 0.676,-0 1.015,-0c3.701,-0 7.176,0.965 10.188,2.657c1.564,0.916 2.943,2.117 4.066,3.54c0.551,0.043 147.035,185.72 171.98,217.339c2.325,2.948 3.59,6.594 3.59,10.349c0,-0 0,-0 0,-0c0,7.226 -3.678,13.592 -9.265,17.329l-0.196,0.155c-9.033,7.126 -22.133,5.58 -29.26,-3.453c0,0 -140.013,-177.476 -168.085,-213.059Zm165.448,-21.345c0.976,-2.921 2.489,-5.469 4.538,-7.643c3.913,-4.15 9.072,-6.225 15.475,-6.225l87.31,-0c28.461,-0 50.102,6.4 64.925,19.2c14.823,12.8 23.337,33.72 23.337,57.885c-0,19.618 -5.514,41.256 -16.542,53.816c-8.371,9.534 -19.372,16.483 -33.001,20.847l50.931,71.745c2.846,4.306 4.269,8.493 4.269,12.561c-0,5.502 -2.194,10.048 -6.581,13.637c-4.388,3.589 -9.546,5.383 -15.476,5.383c-3.794,0 -7.411,-0.897 -10.85,-2.691c-3.439,-1.795 -6.344,-4.486 -8.716,-8.075c-0,-0 -33.478,-47.147 -50.501,-71.121c-6.082,-8.565 -8.784,-6.501 -19.288,-6.501c-17.041,-0 -41.32,-0 -41.32,-0l-49.833,-61.253l0,-82.423l-0.009,-0.242c0,-0.258 0.003,-0.514 0.009,-0.768l0,-0.811c0,-2.576 0.468,-5.043 1.323,-7.321Zm-170.314,84.087l42.681,54.101l-0,82.185c-0,11.506 -9.328,20.833 -20.833,20.833c-0.339,0 -0.677,0 -1.015,0c-11.506,0 -20.833,-9.327 -20.833,-20.833l-0,-136.286Zm212.028,-62.514l0,88.564l59.206,-0c17.313,-0 30.002,-3.29 38.065,-9.87c8.064,-6.579 12.096,-22.235 12.096,-35.872c-0,-13.877 -4.032,-26.972 -12.096,-33.312c-8.063,-6.34 -20.752,-9.51 -38.065,-9.51l-59.206,-0Z" style="fill:#393b46;fill-rule:nonzero;"/></svg>