<?xml version="1.0" encoding="UTF-8" standalone="no"?><!DOCTYPE svg PUBLIC "-//W3C//DTD SVG 1.1//EN" "http://www.w3.org/Graphics/SVG/1.1/DTD/svg11.dtd"><svg width="100%" height="100%" viewBox="0 0 375 259" version="1.1" xmlns="http://www.w3.org/2000/svg" xmlns:xlink="http://www.w3.org/1999/xlink" xml:space="preserve" xmlns:serif="http://www.serif.com/" style="fill-rule:evenodd;clip-rule:evenodd;stroke-linejoin:round;stroke-miterlimit:2;"><path id="logo-gray" d="M6.377,36.146c-3.152,-3.995 -4.866,-8.935 -4.866,-14.024c-0,-0 -0,-0 -0,-0c-0,-11.506 9.327,-20.834 20.833,-20.834c0.338,0 0.676,0 1.015,0c3.701,0 7.176,0.965 10.188,2.658c1.564,0.916 2.943,2.117 4.066,3.54c0.551,0.043 147.035,185.72 171.98,217.339c2.325,2.948 3.59,6.593 3.59,10.349c0,-0 0,-0 0,-0c0,7.225 -3.678,13.592 -9.265,17.329l-0.196,0.154c-9.033,7.127 -22.133,5.581 -29.26,-3.452c0,-0 -140.013,-177.476 -168.085,-213.059Zm165.448,-21.345c0.976,-2.922 2.489,-5.469 4.538,-7.643c3.913,-4.15 9.072,-6.225 15.475,-6.225l87.31,-0c28.461,-0 50.102,6.4 64.925,19.2c14.823,12.8 23.337,33.72 23.337,57.884c-0,19.619 -5.514,41.256 -16.542,53.817c-8.371,9.534 -19.372,16.483 -33.001,20.847l50.931,71.745c2.846,4.306 4.269,8.493 4.269,12.56c-0,5.503 -2.194,10.049 -6.581,13.638c-4.388,3.589 -9.546,5.383 -15.476,5.383c-3.794,-0 -7.411,-0.897 -10.85,-2.692c-3.439,-1.794 -6.344,-4.486 -8.716,-8.074c-0,-0 -33.478,-47.147 -50.501,-71.121c-6.082,-8.565 -8.784,-6.502 -19.288,-6.502c-17.041,0 -41.32,0 -41.32,0l-49.833,-61.253l0,-82.422l-0.009,-0.242c0,-0.258 0.003,-0.514 0.009,-0.768l0,-0.811c0,-2.577 0.468,-5.044 1.323,-7.321Zm-170.314,84.087l42.681,54.101l-0,82.185c-0,11.505 -9.328,20.833 -20.833,20.833c-0.339,-0 -0.677,-0 -1.015,-0c-11.506,-0 -20.833,-9.328 -20.833,-20.833l-0,-136.286Zm212.028,-62.515l0,88.564l59.206,0c17.313,0 30.002,-3.289 38.065,-9.869c8.064,-6.579 12.096,-22.235 12.096,-35.873c-0,-13.876 -4.032,-26.971 -12.096,-33.311c-8.063,-6.341 -20.752,-9.511 -38.065,-9.511l-59.206,0Z" style="fill:#a2a2a2;fill-rule:nonzero;"/></svg>