<?xml version="1.0" standalone="no"?>
<!DOCTYPE svg PUBLIC "-//W3C//DTD SVG 20010904//EN"
 "http://www.w3.org/TR/2001/REC-SVG-20010904/DTD/svg10.dtd">
<svg version="1.0" xmlns="http://www.w3.org/2000/svg"
 width="375.000000pt" height="375.000000pt" viewBox="0 0 375.000000 375.000000"
 preserveAspectRatio="xMidYMid meet">
<metadata>
Created by potrace 1.11, written by Peter Selinger 2001-2013
</metadata>
<g transform="translate(0.000000,375.000000) scale(0.100000,-0.100000)"
fill="#000000" stroke="none">
<path d="M174 3151 c-33 -8 -90 -44 -112 -71 -36 -43 -52 -117 -40 -177 12
-56 17 -64 163 -248 61 -77 211 -267 333 -423 123 -155 229 -290 237 -300 8
-9 80 -100 160 -202 80 -102 151 -192 158 -200 7 -8 67 -85 134 -170 67 -85
176 -225 244 -310 67 -85 145 -184 173 -220 141 -183 197 -229 276 -230 120 0
229 102 230 215 0 58 -31 109 -167 275 -11 13 -166 210 -347 440 -28 35 -113
143 -189 240 -77 96 -150 189 -163 205 -48 61 -357 451 -384 485 -15 19 -99
125 -186 235 -87 110 -163 205 -169 212 -5 6 -45 56 -89 111 -46 60 -91 107
-111 116 -39 19 -109 27 -151 17z"/>
<path d="M1847 3150 c-47 -14 -94 -57 -118 -107 -23 -48 -23 -48 -24 -493 l0
-444 114 -141 c63 -77 157 -192 208 -255 52 -63 108 -132 125 -154 18 -21 37
-44 44 -50 8 -9 83 -12 265 -11 140 1 266 -3 281 -8 34 -11 44 -24 414 -547
187 -263 199 -277 246 -301 143 -73 327 15 328 158 0 58 -30 111 -193 342 -88
124 -205 289 -259 366 l-99 139 53 21 c251 95 393 288 434 590 7 50 6 217 0
265 -45 307 -227 519 -511 595 -62 17 -67 18 -170 34 -75 12 -1100 13 -1138 1z
m1079 -363 c176 -38 256 -118 289 -290 13 -67 13 -235 1 -255 -3 -5 -8 -24
-11 -42 -25 -140 -130 -231 -306 -264 -82 -15 -758 -23 -760 -9 -1 4 -2 204
-3 444 l-1 436 360 -2 c279 -2 376 -6 431 -18z"/>
<path d="M16 1473 c1 -757 -1 -731 55 -795 30 -34 104 -67 149 -68 88 0 159
42 196 117 l26 53 0 430 0 430 -101 127 c-55 71 -148 189 -206 263 -58 74
-109 136 -113 138 -4 1 -7 -312 -6 -695z"/>
</g>
</svg>
